{"title":"Oz the Great and Powerful 2013 HDTS OWNSOURCE XviD [1000mb]-THC","uid":8254865,"size":1066865974,"categoryP":"video","categoryS":"movies","magnet":"?xt=urn:btih:647a224b8455f2e4a4f82232b41237574ccd480f&amp;dn=Oz+the+Great+and+Powerful+2013+HDTS+OWNSOURCE+XviD+%5B1000mb%5D-THC&amp;tr=udp%3A%2F%2Ftracker.openbittorrent.com%3A80&amp;tr=udp%3A%2F%2Fopen.demonii.com%3A1337&amp;tr=udp%3A%2F%2Ftracker.coppersurfer.tk%3A6969&amp;tr=udp%3A%2F%2Fexodus.desync.com%3A6969","seeders":1,"leechers":0,"uploader":"sceneline","files":5,"time":1363244317,"description":"- &lt;a href=&quot;\nhttp://www.Speed.Cd&quot; rel=&quot;nofollow&quot; target=&quot;_NEW&quot;&gt;\nhttp://www.Speed.Cd&lt;/a&gt;\n &lt;a href=&quot;\nhttp://www.Speed.Cd&quot; rel=&quot;nofollow&quot; target=&quot;_NEW&quot;&gt;\nhttp://www.Speed.Cd&lt;/a&gt;       the fast  and The Hottest Private Tracker on the net\n\nPlease Seed back to make the speed Faster!!\n ............ NFO .............\n-[IMG]http://lookpic.com/O/i2/313/lSYKShav.jpeg[/IMG]\n\n[IMG]http://lookpic.com/O/i2/1731/tzUVhx0x.jpeg[/IMG]\n\n[IMG]http://lookpic.com/O/i2/581/Oqipqrhp.jpeg[/IMG]\n &lt;a href=&quot;\nhttp://www.imdb.com/title/tt1623205/&quot; rel=&quot;nofollow&quot; target=&quot;_NEW&quot;&gt;\nhttp://www.imdb.com/title/tt1623205/&lt;/a&gt;\n\nSource: OWN\nAudio: MiNiSTRY...THX\n\nFormat                           : AVI\nFormat/Info                      : Audio Video Interleave\nFile size                        : 1 011 MiB\nDuration                         : 2h 4mn\nOverall bit rate                 : 1 137 Kbps\nWriting library                  : VirtualDub build 35390/release\n\nVideo\nID                               : 0\nFormat                           : MPEG-4 Visual\nFormat profile                   : Advanced Simple@L5\nFormat settings, BVOP            : Yes\nFormat settings, QPel            : No\nFormat settings, GMC             : No warppoints\nFormat settings, Matrix          : Default (H.263)\nMuxing mode                      : Packed bitstream\nCodec ID                         : XVID\nCodec ID/Hint                    : XviD\nDuration                         : 2h 4mn\nBit rate                         : 1 000 Kbps\nWidth                            : 640 pixels\nHeight                           : 270 pixels\nDisplay aspect ratio             : 2.35:1\nFrame rate                       : 25.000 fps\nColor space                      : YUV\nChroma subsampling               : 4:2:0\nBit depth                        : 8 bits\nScan type                        : Progressive\nBits/(Pixel*Frame)               : 0.231\nStream size                      : 889 MiB (88%)\nWriting library                  : XviD 1.2.1 (UTC 2008-12-04)\n\nAudio\nID                               : 1\nFormat                           : MPEG Audio\nFormat version                   : Version 1\nFormat profile                   : Layer 3\nMode                             : Joint stereo\nMode extension                   : MS Stereo\nCodec ID                         : 55\nCodec ID/Hint                    : MP3\nDuration                         : 2h 4mn\nBit rate mode                    : Constant\nBit rate                         : 128 Kbps\nChannel(s)                       : 2 channels\nSampling rate                    : 48.0 KHz\nStream size                      : 114 MiB (11%)\nAlignment                        : Split accross interleaves\nInterleave, duration             : 40 ms (1.00 video frame)\nInterleave, preload duration     : 500 ms\nWriting library                  : LAME3.98.2\n\nNote:\nWe had the source file for a little while but waited for line. We used MiNiSTRY audio but it had 4 cuts in it nothing big or noticeable. We took our time syncing it up so it should be right on. We also did 3 version, 720p, 720x304, and 640x270. The video is the full video uncropped like the russian source on the top and bottom. Did all kinds of filters without over doing it, but im sure there someone out there that will complain again. So enjoy \n\n+1Rep Please If you enjoy this release :)\n\n[IMG]http://lookpic.com/O/i2/424/ZGdsf44M.jpeg[/IMG]\n\n[IMG]http://lookpic.com/O/i2/1870/VjHv2DbA.png[/IMG]\n[IMG]http://lookpic.com/O/i2/1743/y1vZVrW3.png[/IMG]\n[IMG]http://lookpic.com/O/i2/98/HCFlT6wn.png[/IMG]\n[IMG]http://lookpic.com/O/i2/1863/0r2pcOEx.png[/IMG]\n[IMG]http://lookpic.com/O/i2/607/NNGUoDAl.png[/IMG]","torrent":{"xt":"urn:btih:647a224b8455f2e4a4f82232b41237574ccd480f","amp;dn":"Oz+the+Great+and+Powerful+2013+HDTS+OWNSOURCE+XviD+%5B1000mb%5D-THC","amp;tr":["udp%3A%2F%2Ftracker.openbittorrent.com%3A80","udp%3A%2F%2Fopen.demonii.com%3A1337","udp%3A%2F%2Ftracker.coppersurfer.tk%3A6969","udp%3A%2F%2Fexodus.desync.com%3A6969"],"infoHash":"647a224b8455f2e4a4f82232b41237574ccd480f","infoHashBuffer":{"type":"Buffer","data":[100,122,34,75,132,85,242,228,164,248,34,50,180,18,55,87,76,205,72,15]},"announce":[],"urlList":[]}}